C:/Program Files/Krita (x64)/bin/ffmpeg.exe -hide_banner -y -y -r 18 -start_number 0 -start_number_range 1 -i C:/Users/LB908-8/Desktop/GOON_1/Right_Walk/R_Walk_%04d.png -i C:/Users/LB908-8/Desktop/GOON_1/Right_Walk/KritaTempPalettegen_%06d.png -lavfi [0:v][1:v]paletteuse=dither=sierra2_4a:diff_mode=none -f gif -loop 0 -gifflags +transdiff C:/Users/LB908-8/Desktop/GOON_1/Right_Walk/Base_Walk_Side-Animation.gif
=====================================================
Input #0, image2, from 'C:/Users/LB908-8/Desktop/GOON_1/Right_Walk/R_Walk_%04d.png':
  Duration: 00:00:00.64, start: 0.000000, bitrate: N/A
  Stream #0:0: Video: png, rgba(pc, gbr/unknown/unknown), 3840x2160 [SAR 9448:9448 DAR 16:9], 25 fps, 25 tbr, 25 tbn
Input #1, image2, from 'C:/Users/LB908-8/Desktop/GOON_1/Right_Walk/KritaTempPalettegen_%06d.png':
  Duration: 00:00:00.04, start: 0.000000, bitrate: N/A
  Stream #1:0: Video: png, rgba(pc, gbr/unknown/unknown), 16x16 [SAR 1:1 DAR 1:1], 25 fps, 25 tbr, 25 tbn
Stream mapping:
  Stream #0:0 (png) -> paletteuse
  Stream #1:0 (png) -> paletteuse
  paletteuse:default -> Stream #0:0 (gif)
Press [q] to stop, [?] for help
Output #0, gif, to 'C:/Users/LB908-8/Desktop/GOON_1/Right_Walk/Base_Walk_Side-Animation.gif':
  Metadata:
    encoder         : Lavf61.7.100
  Stream #0:0: Video: gif, pal8(pc, gbr/unknown/unknown, progressive), 3840x2160 [SAR 1:1 DAR 16:9], q=2-31, 200 kb/s, 18 fps, 100 tbn
      Metadata:
        encoder         : Lavc61.19.101 gif
frame=    5 fps=0.0 q=-0.0 size=     207KiB time=00:00:00.27 bitrate=6098.9kbits/s speed=0.555x    frame=   13 fps= 13 q=-0.0 size=     512KiB time=00:00:00.72 bitrate=5807.5kbits/s speed=0.708x    [out#0/gif @ 0000020f3078b740] video:995KiB audio:0KiB subtitle:0KiB other streams:0KiB global headers:0KiB muxing overhead: 0.001963%
frame=   16 fps= 14 q=-0.0 Lsize=     995KiB time=00:00:00.88 bitrate=9171.7kbits/s speed=0.75x    
